<svg xmlns="http://www.w3.org/2000/svg" width="82.334" height="82.623" viewBox="0 0 82.334 82.623">
  <g id="그룹_177" data-name="그룹 177" transform="translate(-148.256 147.084)">
    <g id="그룹_176" data-name="그룹 176">
      <path id="패스_467" data-name="패스 467" d="M198.141-138.589a.126.126,0,0,1-.145.077l-.661-.115a.116.116,0,0,1-.11-.121l-.73-6.724q-.751,1.524-1.492,3.034t-1.493,3.044a.125.125,0,0,1-.145.077l-.68-.118a.118.118,0,0,1-.111-.121l-.794-7.4a.1.1,0,0,1,.027-.092.1.1,0,0,1,.1-.029l.463.081a.173.173,0,0,1,.154.168l.66,6.712q.744-1.534,1.478-3.016t1.478-3.016a.215.215,0,0,1,.114-.128.29.29,0,0,1,.166-.017l.512.089a.219.219,0,0,1,.184.225l.705,6.629q.738-1.557,1.45-3.027t1.46-3.025a.2.2,0,0,1,.086-.086.167.167,0,0,1,.115-.021l.413.072a.1.1,0,0,1,.081.06.1.1,0,0,1-.006.1Z" fill="#fff"/>
      <path id="패스_468" data-name="패스 468" d="M205.287-135.614c-.121-.071-.185-.123-.194-.155s.023-.108.1-.229l3.5-5.936c.064-.109.112-.168.144-.176s.1.02.212.084l2.99,1.762a.123.123,0,0,1,.049.191l-.178.3a.122.122,0,0,1-.191.049l-2.585-1.522-1.34,2.274,2.455,1.447a.123.123,0,0,1,.05.191l-.183.311a.123.123,0,0,1-.191.049l-2.456-1.446L206-135.937l2.689,1.584a.123.123,0,0,1,.049.191l-.183.31a.123.123,0,0,1-.192.05Z" fill="#fff"/>
      <path id="패스_469" data-name="패스 469" d="M216.018-127.769a.124.124,0,0,1-.006.2l-.254.24a.124.124,0,0,1-.2,0l-2.225-2.355c-.064-.068-.112-.122-.144-.16a.169.169,0,0,1-.047-.107.176.176,0,0,1,.056-.109c.037-.039.089-.09.157-.154l5-4.726a.124.124,0,0,1,.2.006l.316.335a.122.122,0,0,1-.005.2l-4.819,4.554Z" fill="#fff"/>
      <path id="패스_470" data-name="패스 470" d="M221.606-118.713a.177.177,0,0,1,.054.1.069.069,0,0,1-.045.078l-.34.192a.169.169,0,0,1-.224-.045,3.925,3.925,0,0,1-.446-.537,6.45,6.45,0,0,1-.438-.765,3.683,3.683,0,0,1-.288-2.952,3.279,3.279,0,0,1,.746-1.216,4.646,4.646,0,0,1,1.287-.915,3.8,3.8,0,0,1,2.938-.315,3.684,3.684,0,0,1,2.171,1.979q.108.214.186.393c.052.119.1.237.143.354s.082.232.118.348.068.242.1.376a.16.16,0,0,1-.108.21l-.367.161c-.089.03-.138,0-.147-.094a3.92,3.92,0,0,0-.174-.74,6.081,6.081,0,0,0-.312-.727,2.935,2.935,0,0,0-1.81-1.612,3.315,3.315,0,0,0-2.406.329,4.159,4.159,0,0,0-1.079.75,2.768,2.768,0,0,0-.644.97,2.855,2.855,0,0,0,.212,2.42c.131.247.273.488.426.72A2.733,2.733,0,0,0,221.606-118.713Z" fill="#fff"/>
      <path id="패스_471" data-name="패스 471" d="M227.142-107.066a4.429,4.429,0,0,1-2.86-.472,2.967,2.967,0,0,1-1.373-2.3,3,3,0,0,1,.769-2.574,4.336,4.336,0,0,1,2.658-1.155,5.217,5.217,0,0,1,1.513.013,3.911,3.911,0,0,1,1.253.429,3.149,3.149,0,0,1,.981.972,3.225,3.225,0,0,1,.477,1.367,3.229,3.229,0,0,1-.123,1.441,3.04,3.04,0,0,1-.732,1.174,4.031,4.031,0,0,1-1.123.734A4.936,4.936,0,0,1,227.142-107.066Zm-.09-.725a4.282,4.282,0,0,0,1.161-.305,3.765,3.765,0,0,0,.947-.571,2.49,2.49,0,0,0,.647-.921,2.255,2.255,0,0,0,.128-1.12,2.266,2.266,0,0,0-.4-1.063,2.478,2.478,0,0,0-.852-.736,3.72,3.72,0,0,0-1.058-.323,4.293,4.293,0,0,0-1.2-.012,4.375,4.375,0,0,0-1.166.305,3.758,3.758,0,0,0-.952.572,2.663,2.663,0,0,0-.64.936,2.213,2.213,0,0,0-.134,1.114,2.242,2.242,0,0,0,.4,1.055,2.477,2.477,0,0,0,.852.735,3.685,3.685,0,0,0,1.062.322A4.337,4.337,0,0,0,227.052-107.791Z" fill="#fff"/>
      <path id="패스_472" data-name="패스 472" d="M221.423-93.464a.124.124,0,0,1-.1-.171l.113-.436a.123.123,0,0,1,.17-.1l6.417,1.667q-1.594-1.179-2.85-2.114l-1.052-.78q-.516-.382-.918-.683c-.268-.2-.486-.364-.653-.49s-.254-.19-.26-.191a.161.161,0,0,1-.059-.171l.113-.435a.155.155,0,0,1,.05-.09.168.168,0,0,1,.085-.03l7.1-1.007-6.417-1.667a.124.124,0,0,1-.1-.171l.113-.435a.124.124,0,0,1,.171-.1l6.775,1.761c.135.035.211.066.228.1a.466.466,0,0,1-.028.246l-.188.726a.249.249,0,0,1-.049.106.191.191,0,0,1-.113.038l-6.931.948,5.623,4.126a.154.154,0,0,1,.066.182l-.19.736c-.036.135-.068.212-.1.229a.478.478,0,0,1-.246-.028Z" fill="#fff"/>
      <path id="패스_473" data-name="패스 473" d="M218.233-87.791c.08-.115.137-.175.169-.181s.106.031.221.11l5.666,3.922q.156.108.165.156c.005.033-.028.1-.1.2l-1.975,2.853a.123.123,0,0,1-.194.036l-.288-.2a.125.125,0,0,1-.036-.195l1.708-2.467-2.171-1.5-1.622,2.343a.123.123,0,0,1-.194.036l-.3-.2a.124.124,0,0,1-.035-.195l1.622-2.343-2.368-1.64-1.776,2.566a.124.124,0,0,1-.195.035l-.3-.205a.123.123,0,0,1-.035-.194Z" fill="#fff"/>
      <path id="패스_474" data-name="패스 474" d="M206.067-75.809A.123.123,0,0,1,206.1-76l.366-.26a.125.125,0,0,1,.2.033l3.838,5.406q-.462-1.929-.82-3.453-.156-.649-.3-1.274t-.263-1.114q-.114-.489-.185-.794c-.046-.205-.072-.309-.075-.315a.16.16,0,0,1,.064-.168l.367-.261a.162.162,0,0,1,.1-.037.177.177,0,0,1,.084.032l6.083,3.8-3.838-5.406a.124.124,0,0,1,.033-.195l.367-.261a.124.124,0,0,1,.195.034l4.052,5.707c.081.114.12.188.114.22s-.066.09-.179.17l-.612.435a.249.249,0,0,1-.106.05.191.191,0,0,1-.111-.044l-5.914-3.736,1.648,6.778a.156.156,0,0,1-.067.182l-.62.44c-.114.081-.187.119-.22.114s-.089-.066-.17-.18Z" fill="#fff"/>
      <path id="패스_475" data-name="패스 475" d="M194.517-71.946c-.055-.082-.038-.135.053-.158l.466-.116a.26.26,0,0,1,.106-.007c.033.006.07.038.112.1l1.165,1.6,3.647-.914c.047-.335.092-.663.136-.982s.085-.647.125-.98a.216.216,0,0,1,.053-.138.248.248,0,0,1,.1-.044l.456-.115c.091-.023.131.015.121.114l-1.111,7.66a.178.178,0,0,1-.145.16l-.591.149a.182.182,0,0,1-.2-.073Zm2.291,1.983q.66.906,1.28,1.8t1.281,1.8q.154-1.112.3-2.194t.3-2.194Z" fill="#fff"/>
      <path id="패스_476" data-name="패스 476" d="M188.309-71.758a.124.124,0,0,1,.149-.13l.449.031a.124.124,0,0,1,.13.149l-.48,6.964c-.01.146-.031.232-.062.256a.477.477,0,0,1-.258.023l-1.776-.123a2.562,2.562,0,0,1-1.679-.647,1.971,1.971,0,0,1-.53-1.62,2.215,2.215,0,0,1,.248-.91,1.906,1.906,0,0,1,.561-.643,2.248,2.248,0,0,1,.807-.361,2.833,2.833,0,0,1,.965-.053l1.268.087ZM185-66.8a1.518,1.518,0,0,0,.294,1.117,1.441,1.441,0,0,0,1.061.459l1.5.1.205-2.982-.808-.056a6.505,6.505,0,0,0-.866-.009,1.735,1.735,0,0,0-.673.164,1.14,1.14,0,0,0-.465.424A1.912,1.912,0,0,0,185-66.8Z" fill="#fff"/>
      <path id="패스_477" data-name="패스 477" d="M172.084-72.333a4.425,4.425,0,0,1,1.826-2.25,2.967,2.967,0,0,1,2.677-.055,2.993,2.993,0,0,1,1.855,1.943,4.335,4.335,0,0,1-.312,2.881,5.235,5.235,0,0,1-.761,1.308,3.871,3.871,0,0,1-.993.875,3.149,3.149,0,0,1-1.331.372,3.224,3.224,0,0,1-1.423-.262,3.25,3.25,0,0,1-1.191-.821,3.05,3.05,0,0,1-.658-1.217,4.042,4.042,0,0,1-.081-1.339A4.909,4.909,0,0,1,172.084-72.333Zm.674.281a4.281,4.281,0,0,0-.31,1.16,3.761,3.761,0,0,0,.027,1.1,2.489,2.489,0,0,0,.481,1.018,2.234,2.234,0,0,0,.908.666,2.277,2.277,0,0,0,1.122.181,2.486,2.486,0,0,0,1.061-.376,3.758,3.758,0,0,0,.8-.76,4.314,4.314,0,0,0,.606-1.037,4.405,4.405,0,0,0,.312-1.164,3.725,3.725,0,0,0-.026-1.11,2.657,2.657,0,0,0-.5-1.019,2.22,2.22,0,0,0-.9-.669,2.246,2.246,0,0,0-1.113-.176,2.482,2.482,0,0,0-1.061.376,3.732,3.732,0,0,0-.806.763A4.362,4.362,0,0,0,172.758-72.052Z" fill="#fff"/>
      <path id="패스_478" data-name="패스 478" d="M163.125-84.051a.125.125,0,0,1,.2,0l.322.314a.124.124,0,0,1,0,.2L159.016-78.8q1.815-.8,3.25-1.425l1.2-.527,1.049-.458.749-.323c.192-.083.291-.126.3-.131a.16.16,0,0,1,.177.033l.322.315a.161.161,0,0,1,.054.087.192.192,0,0,1-.017.089l-2.65,6.664,4.632-4.743a.123.123,0,0,1,.2,0l.322.314a.124.124,0,0,1,0,.2L163.708-73.7c-.1.1-.163.151-.2.151s-.1-.048-.2-.146l-.537-.524a.239.239,0,0,1-.068-.095.194.194,0,0,1,.023-.117l2.617-6.487-6.373,2.833a.155.155,0,0,1-.191-.032l-.544-.531c-.1-.1-.15-.164-.151-.2s.048-.1.146-.2Z" fill="#fff"/>
      <path id="패스_479" data-name="패스 479" d="M157.238-94.716c.071-.069.126-.061.164.024l.2.437a.277.277,0,0,1,.025.1.214.214,0,0,1-.074.127l-1.367,1.436,1.559,3.421q.507-.021.991-.044c.323-.016.651-.034.986-.054a.216.216,0,0,1,.145.027.255.255,0,0,1,.061.088l.2.427c.038.085.008.132-.091.14l-7.734.294a.18.18,0,0,1-.184-.113l-.253-.556a.18.18,0,0,1,.034-.213ZM155.7-92.1q-.772.813-1.536,1.585t-1.536,1.584q1.121-.048,2.212-.1t2.212-.1Z" fill="#fff"/>
      <path id="패스_480" data-name="패스 480" d="M156.07-100.528l.04.448a.123.123,0,0,1-.127.152l-6.973.619c-.139.013-.221.009-.247-.013a.464.464,0,0,1-.056-.241l-.041-.458a.417.417,0,0,1,.009-.176.29.29,0,0,1,.106-.105l6.112-4.328-6.445.573a.124.124,0,0,1-.152-.128l-.039-.438a.124.124,0,0,1,.127-.151l6.973-.62c.139-.012.222-.008.247.014a.47.47,0,0,1,.057.24l.053.608a.244.244,0,0,1-.009.116.3.3,0,0,1-.093.094l-6.009,4.228,6.315-.561A.124.124,0,0,1,156.07-100.528Z" fill="#fff"/>
      <path id="패스_481" data-name="패스 481" d="M155.1-116.1q2.055.479,1.4,3.294l-.275,1.178c-.031.136-.061.213-.089.231a.472.472,0,0,1-.247-.022l-6.661-1.554c-.137-.032-.213-.062-.231-.09a.472.472,0,0,1,.022-.247l.341-1.46q.539-2.309,2.311-1.9A1.559,1.559,0,0,1,153.01-115a2.394,2.394,0,0,1,.909-.974A1.617,1.617,0,0,1,155.1-116.1Zm-3.57.163q-1.2-.281-1.568,1.308l-.232.993,2.542.593.188-.808a2.172,2.172,0,0,0-.04-1.411A1.227,1.227,0,0,0,151.525-115.937Zm3.441.566a1.234,1.234,0,0,0-1.194.276,3.161,3.161,0,0,0-.739,1.584l-.148.633,2.824.659.175-.75Q156.368-115.043,154.966-115.371Z" fill="#fff"/>
      <path id="패스_482" data-name="패스 482" d="M159.492-128.351a4.43,4.43,0,0,1,1.921,2.171,2.97,2.97,0,0,1-.386,2.65,2.991,2.991,0,0,1-2.221,1.511,4.34,4.34,0,0,1-2.791-.78,5.251,5.251,0,0,1-1.165-.966,3.9,3.9,0,0,1-.7-1.123,3.147,3.147,0,0,1-.148-1.374,3.208,3.208,0,0,1,.493-1.361,3.224,3.224,0,0,1,1-1.04,3.023,3.023,0,0,1,1.308-.449,4,4,0,0,1,1.334.14A4.884,4.884,0,0,1,159.492-128.351Zm-.388.619a4.3,4.3,0,0,0-1.093-.5,3.8,3.8,0,0,0-1.094-.155,2.51,2.51,0,0,0-1.084.307,2.253,2.253,0,0,0-.806.787,2.275,2.275,0,0,0-.361,1.078,2.487,2.487,0,0,0,.2,1.108,3.75,3.75,0,0,0,.617.917,4.276,4.276,0,0,0,.923.768,4.4,4.4,0,0,0,1.1.5,3.748,3.748,0,0,0,1.1.157,2.664,2.664,0,0,0,1.087-.322,2.218,2.218,0,0,0,.808-.781,2.25,2.25,0,0,0,.356-1.068,2.494,2.494,0,0,0-.2-1.109,3.76,3.76,0,0,0-.622-.92A4.363,4.363,0,0,0,159.1-127.732Z" fill="#fff"/>
    </g>
  </g>
</svg>
